<?xml version="1.0" encoding="iso-8859-1"?>
<!-- Generator: Adobe Illustrator 19.0.0, SVG Export Plug-In . SVG Version: 6.00 Build 0)  -->
<svg xmlns="http://www.w3.org/2000/svg" xmlns:xlink="http://www.w3.org/1999/xlink" version="1.1" id="Layer_1" x="0px" y="0px" viewBox="0 0 502 502" style="enable-background:new 0 0 502 502;" xml:space="preserve" width="512" height="512">
<g>
	<g>
		<g>
			<rect x="206.849" y="202.769" style="fill:#CCCCCC;" width="88.301" height="289.231"/>
			<rect x="185.225" y="160.421" style="fill:#CCCCCC;" width="131.551" height="42.348"/>
			<rect x="169.006" y="55" style="fill:#CCCCCC;" width="163.988" height="36.041"/>
			<g>
				<polygon style="fill:#50A5DC;" points="316.775,91.041 185.225,91.041 192.527,126.181 309.93,126.181     "/>
				<polygon style="fill:#50A5DC;" points="192.527,126.181 199.641,160.421 303.26,160.421 309.93,126.181     "/>
			</g>
		</g>
	</g>
	<g>
		<path d="M332.994,45H301V24c0-5.522-4.478-10-10-10s-10,4.478-10,10v21h-63V10c0-5.522-4.478-10-10-10s-10,4.478-10,10v35h-28.994    c-5.522,0-10,4.478-10,10v36.041c0,5.522,4.478,10,10,10h8.083l5.646,27.175l4.615,22.205h-2.125c-5.522,0-10,4.478-10,10v42.349    c0,5.522,4.478,10,10,10h11.625V492c0,5.522,4.478,10,10,10h88.301c5.522,0,10-4.478,10-10V212.77h11.625c5.522,0,10-4.478,10-10    v-42.349c0-5.522-4.478-10-10-10h-1.38l4.349-22.327l5.27-27.053h7.979c5.522,0,10-4.478,10-10V55    C342.994,49.478,338.517,45,332.994,45z M179.006,65h143.988v16.041h-6.219H185.225h-6.219V65z M285.15,482H216.85V212.77h68.301    V482z M306.775,192.77H295.15H206.85h-11.625v-22.349h4.417H303.26h3.516V192.77z M207.777,150.421l-2.959-14.239h92.976    l-2.774,14.239H207.777z M301.689,116.182H200.662l-3.146-15.141H304.64L301.689,116.182z"/>
		<path d="M237,449c5.522,0,10-4.478,10-10V286c0-5.522-4.478-10-10-10s-10,4.478-10,10v153C227,444.522,231.478,449,237,449z"/>
		<path d="M237,257c5.522,0,10-4.478,10-10v-13c0-5.522-4.478-10-10-10s-10,4.478-10,10v13C227,252.522,231.478,257,237,257z"/>
	</g>
</g>















</svg>
